<?xml version="1.0" standalone="no"?>
<!DOCTYPE svg PUBLIC "-//W3C//DTD SVG 20010904//EN"
 "http://www.w3.org/TR/2001/REC-SVG-20010904/DTD/svg10.dtd">
<svg version="1.0" xmlns="http://www.w3.org/2000/svg"
 width="500.000000pt" height="500.000000pt" viewBox="0 0 500.000000 500.000000"
 preserveAspectRatio="xMidYMid meet">
<metadata>
Created by potrace 1.16, written by Peter Selinger 2001-2019
</metadata>
<g transform="translate(0.000000,500.000000) scale(0.100000,-0.100000)"
fill="#000000" stroke="none">
<path d="M2590 2915 c0 -3 -43 -204 -95 -446 -52 -241 -95 -441 -95 -444 0
-16 31 -1 35 18 21 88 185 859 185 867 0 5 -7 10 -15 10 -8 0 -15 -2 -15 -5z"/>
<path d="M2122 2597 c-67 -67 -122 -127 -122 -132 0 -6 56 -66 125 -135 99
-99 127 -122 137 -112 10 10 -12 37 -105 130 l-117 117 115 115 c107 107 123
129 99 137 -5 2 -64 -52 -132 -120z"/>
<path d="M2754 2708 c-5 -7 38 -54 112 -124 l119 -113 -120 -120 c-95 -96
-117 -123 -107 -133 10 -10 39 14 142 117 l130 130 -127 127 c-70 71 -131 128
-135 128 -4 0 -10 -5 -14 -12z"/>
</g>
</svg>
